<svg width="372" height="187" viewBox="0 0 372 187" fill="none" xmlns="http://www.w3.org/2000/svg"><path d="M37.2167 105.356C23.8071 111.099 14.4269 118.667 9.61351 123.133C7.41892 125.168 4.02507 125.17 1.82868 123.136C-0.481938 120.998 -0.622445 117.402 1.51866 115.094C16.6442 98.7983 46.2815 67.5377 118.918 64.0534C206.453 59.8554 226.057 124.667 304.014 109.309C304.014 109.309 265.962 112.326 193.01 61.5537C135.268 21.3668 68.647 52.9111 67.4323 53.2905C67.9762 52.4684 103.32 0 172.575 0C249.625 0 283.165 98.4686 372 86.7246C372 86.7246 315.798 187 217.899 187C153.278 187 116.602 142.826 84.146 113.243C71.4344 101.654 53.0447 98.5761 37.2167 105.356Z" fill="#4FC646"/></svg>
